<svg width="300" height="87" viewBox="0 0 300 87" fill="none" xmlns="http://www.w3.org/2000/svg">
<path fill-rule="evenodd" clip-rule="evenodd" d="M13.2256 79.3403C9.53158 79.3403 6.64931 75.8861 7.31077 72.2518L18.2494 12.15C18.7696 9.29181 21.2591 7.21448 24.1643 7.21448C111.7 7.21448 199.237 7.2145 286.773 7.2145C290.377 7.2145 293.234 10.5091 292.725 14.0768L290.921 26.702C290.498 29.6638 287.961 31.8638 284.969 31.8638H275.531L267.272 74.4902C266.724 77.3171 264.249 79.3587 261.37 79.3587C178.655 79.3587 95.9403 79.3403 13.2256 79.3403Z" fill="#1E1E1E"/>
<path fill-rule="evenodd" clip-rule="evenodd" d="M0.213599 70.9599L11.1522 10.8581C12.2967 4.57014 17.7737 0 24.1649 0L286.774 1.9494e-05C294.768 1.9494e-05 300.998 7.18315 299.867 15.097L298.064 27.7223C297.133 34.2382 291.552 39.0782 284.97 39.0782H281.482L274.355 75.8625C273.15 82.0815 267.705 86.5731 261.37 86.5731C220.013 86.5731 178.655 86.5685 137.298 86.5639H137.296C95.9392 86.5593 54.5827 86.5547 13.2263 86.5547C5.0306 86.5547 -1.25392 79.0231 0.213599 70.9599ZM275.532 31.8638H284.97C287.962 31.8638 290.498 29.6638 290.922 26.702L292.725 14.0767C293.235 10.509 290.378 7.21445 286.774 7.21445L24.1649 7.21443C21.2598 7.21443 18.7703 9.29177 18.2501 12.1499L7.31143 72.2517C6.64997 75.8861 9.53224 79.3403 13.2263 79.3403C54.5836 79.3403 95.941 79.3449 137.298 79.3495C178.656 79.354 220.013 79.3586 261.37 79.3586C264.25 79.3586 266.725 77.317 267.273 74.4902L275.532 31.8638Z" fill="#0288B0"/>
<path fill-rule="evenodd" clip-rule="evenodd" d="M13.2256 79.3403C9.53158 79.3403 6.64931 75.8861 7.31077 72.2518L18.2494 12.15C18.7696 9.29181 21.2591 7.21448 24.1643 7.21448C111.7 7.21448 199.237 7.2145 286.773 7.2145C290.377 7.2145 293.234 10.5091 292.725 14.0768L290.921 26.702C290.498 29.6638 287.961 31.8638 284.969 31.8638H275.531L267.272 74.4902C266.724 77.3171 264.249 79.3587 261.37 79.3587C178.655 79.3587 95.9403 79.3403 13.2256 79.3403Z" fill="#1E1E1E"/>
<path fill-rule="evenodd" clip-rule="evenodd" d="M295.701 14.5018L293.898 27.127C293.263 31.5698 289.458 34.8697 284.97 34.8697H278.011L270.224 75.0619C269.403 79.3022 265.69 82.3646 261.371 82.3646C220.013 82.3646 178.656 82.36 137.298 82.3554C95.9411 82.3508 54.5836 82.3463 13.2266 82.3463C7.6569 82.3463 3.35702 77.1932 4.35434 71.7134L15.293 11.6116C16.0733 7.32438 19.8076 4.20837 24.1653 4.20837L286.774 4.20839C292.207 4.20839 296.47 9.12323 295.701 14.5018ZM275.532 31.8637L267.273 74.4901C266.725 77.317 264.25 79.3586 261.371 79.3586C220.013 79.3586 178.656 79.354 137.299 79.3494C95.9413 79.3448 54.584 79.3402 13.2266 79.3402C9.53258 79.3402 6.65031 75.886 7.31177 72.2517L18.2504 12.1499C18.7706 9.29173 21.2601 7.21439 24.1653 7.21439L286.774 7.21441C290.378 7.21441 293.235 10.509 292.726 14.0767L290.922 26.7019C290.499 29.6637 287.962 31.8637 284.97 31.8637H275.532Z" fill="#1E1E1E"/>
<path d="M235.371 13.2264H250.295L247.974 25.8517H233.267L235.371 13.2264Z" fill="#E74C57"/>
<path d="M235.371 13.2264H250.295L247.974 25.8517H233.267L235.371 13.2264Z" fill="#0288B0"/>
<path d="M246.494 32.4649L231.764 32.4649L224.249 73.3466H238.978L246.494 32.4649Z" fill="#E74C57"/>
<path d="M257.51 13.2264H286.774L284.971 25.8517H270.573L261.371 73.3466H246.642L257.51 13.2264Z" fill="#E74C57"/>
<path fill-rule="evenodd" clip-rule="evenodd" d="M76.0749 20.4409L84.7957 13.2264H111.27H115.028L120.841 20.7415L112.702 65.8317L103.981 73.3467H73.4587L67.9355 65.5311L76.0749 20.4409ZM99.0395 61.3227L105.435 25.8517H89.7651L83.6143 61.3227H99.0395Z" fill="#E74C57"/>
<path fill-rule="evenodd" clip-rule="evenodd" d="M181.864 13.2264H220.943L226.955 20.7415L223.7 38.1764L217.937 42.986L221.736 48.6974L218.538 65.8317L209.52 73.3467H170.742L181.864 13.2264ZM204.41 61.3227L206.595 49.5992L200.802 42.3848C209.229 35.4709 209.229 35.4709 209.229 35.4709L211.023 25.8517H194.819L188.458 61.3227H204.41Z" fill="#E74C57"/>
<path fill-rule="evenodd" clip-rule="evenodd" d="M129.14 13.2264H167.8L173.748 20.7415L165.421 65.8317L156.5 73.3467H118.137L129.14 13.2264ZM151.444 61.3227L157.986 25.8517H141.956L135.663 61.3227H151.444Z" fill="#E74C57"/>
<path fill-rule="evenodd" clip-rule="evenodd" d="M69.439 21.3427L65.9118 40.5906L55.0758 51.3107L63.1762 73.3282H47.2579L34.6688 39.7874L28.723 73.3282H13.2266L24.1652 13.2264H62.4505L69.439 21.3427ZM53.6388 25.8517H36.927C36.3193 29.4589 35.1038 38.1764 35.1038 38.1764C35.1038 38.1764 48.4733 38.1764 51.5118 38.1764L53.6388 25.8517Z" fill="#E74C57"/>
</svg>
